<?xml version="1.0"?>
<svg width="48" height="48" xmlns="http://www.w3.org/2000/svg" xmlns:svg="http://www.w3.org/2000/svg" xmlns:xlink="http://www.w3.org/1999/xlink">
 <g class="layer">
  <title>Layer 1</title>
  <g fill="none" fill-rule="evenodd" id="svg_1" transform="matrix(1 0 0 1 0 0)">
   <path d="m0,0l24,0l0,48l-24,0l0,-48z" fill="#93F4FE" fill-opacity="0.64" id="svg_2"/>
   <path d="m28,0l20,0l0,20l-20,0l0,-20z" fill="#FFCF7B" fill-opacity="0.64" id="svg_3"/>
  </g>
  <use fill="#5250b7" id="svg_16" stroke="#5250b7" transform="matrix(0.537917 0 0 0.558562 -1.34498 -0.060756)" x="26.21" xlink:href="#svg_15" y="20.59"/>
 </g>
 <defs>
  <symbol enable-background="new 0 0 1000 1000" id="svg_15" version="1.1" viewBox="0 0 1000 1000" xml:space="preserve" xmlns="http://www.w3.org/2000/svg" xmlns:xlink="http://www.w3.org/1999/xlink">
   <g id="svg_14" stroke-width="0"/>
   <g id="svg_13" stroke-linecap="round" stroke-linejoin="round"/>
   <g id="svg_12">
    <metadata>Svg Vector Icons : http://www.onlinewebfonts.com/icon</metadata>
    <g>
     <g transform="translate(0.000000,511.000000) scale(0.100000,-0.100000)">
      <path d="m1685.8,4989.2c-253.7,-58.9 -499.3,-265.9 -621.1,-519.6l-75.1,-158.3l-6.1,-4141c-4.1,-2772.8 2,-4173.4 16.2,-4238.4c56.8,-267.9 257.8,-513.6 523.7,-639.4l156.3,-75.1l3258,-6.1c2174,-4.1 3290.4,2 3355.4,16.2c326.8,69 627.2,365.4 702.4,692.2c14.2,58.9 22.3,1049.5 22.3,2809.4c0,2616.5 -2,2724.1 -38.6,2801.2c-48.7,101.5 -3373.6,3428.5 -3458.9,3460.9c-71.1,26.4 -3722.8,24.4 -3834.5,-2zm3170.7,-1902c0,-1433.1 2,-1451.4 115.7,-1648.3c89.3,-152.2 253.7,-298.4 426.3,-381.6l158.3,-75.1l1427,-6.1l1425,-6.1l0,-2494.7c0,-1891.9 -6.1,-2506.9 -24.4,-2547.5c-52.8,-117.7 148.2,-111.6 -3385.8,-111.6s-3333.1,-6.1 -3385.8,111.6c-38.6,81.2 -34.5,8302.2 4.1,8371.2c58.9,105.6 12.2,101.5 1682.8,103.5l1556.9,0l0,-1315.3l-0.1,0zm2009.6,-1502.1c-1351.9,-4.1 -1337.7,-6.1 -1380.3,109.6c-12.2,30.5 -20.3,552.1 -20.3,1293l0,1242.3l1319.4,-1319.4l1319.4,-1319.4l-1238.2,-6.1z"/>
      <path d="m2989,-327.1l0,-304.5l2009.6,0l2009.6,0l0,304.5l0,304.5l-2009.6,0l-2009.6,0l0,-304.5z"/>
      <path d="m2989,-1646.5l0,-304.5l2009.6,0l2009.6,0l0,304.5l0,304.5l-2009.6,0l-2009.6,0l0,-304.5z"/>
      <path d="m2989,-2925.3l0,-304.5l954.1,0l954,0l0,304.5l0,304.5l-954,0l-954.1,0l0,-304.5z"/>
     </g>
    </g>
   </g>
  </symbol>
 </defs>
</svg>